<svg height="349pt" viewBox="-21 0 349 349.8" width="349pt" xmlns="http://www.w3.org/2000/svg"><path d="m221.699219 30.601562v319.199219l-105.699219-106.300781c-1.324219-1.332031-3.121094-2.085938-5-2.101562-1.886719-.03125-3.703125.730468-5 2.101562l-105.601562 106.300781v-319.199219c0-16.902343 13.703124-30.601562 30.601562-30.601562h202.898438c-7.847657 8.253906-12.214844 19.210938-12.199219 30.601562zm84.699219 35.199219c-.015626 18.21875-14.78125 32.980469-33 33h-37.699219v-68.199219c0-16.902343 13.699219-30.601562 30.601562-30.601562h9.398438c16.902343 0 30.601562 13.699219 30.601562 30.601562v35.199219zm0 0"/></svg>