<svg height="464pt" viewBox="-7 0 463 464" width="464pt" xmlns="http://www.w3.org/2000/svg"><path d="m330.585938 36.398438-8.078126 14c-23.929687-19.195313-52.972656-30.9375-83.519531-33.757813-5.121093-.402344-10-.640625-14.480469-.640625-35.601562.035156-70.171874 11.945312-98.242187 33.839844l-8.078125-13.917969c30.554688-23.289063 67.902344-35.90625 106.320312-35.921875 4.878907 0 10.238282.238281 15.839844.640625 32.898438 2.964844 64.238282 15.382813 90.238282 35.757813zm0 0"/><path d="m268.691406 200h-8.367187l4.183593 10.464844zm0 0"/><path d="m188.691406 200h-8.367187l4.183593 10.464844zm0 0"/><path d="m192.507812 136c0 8.835938-7.164062 16-16 16-8.835937 0-16-7.164062-16-16s7.164063-16 16-16c8.835938 0 16 7.164062 16 16zm0 0"/><path d="m288.507812 136c0 8.835938-7.164062 16-16 16-8.835937 0-16-7.164062-16-16s7.164063-16 16-16c8.835938 0 16 7.164062 16 16zm0 0"/><path d="m285.921875 200-13.980469 34.96875c-1.214844 3.042969-4.160156 5.039062-7.433594 5.039062-3.277343 0-6.21875-1.996093-7.433593-5.039062l-13.984375-34.96875h-37.167969l-13.980469 34.96875c-1.214844 3.042969-4.160156 5.039062-7.433594 5.039062-3.277343 0-6.21875-1.996093-7.433593-5.039062l-13.984375-34.96875h-18.183594c4.105469 40.882812 38.511719 72.011719 79.601562 72.011719 41.089844 0 75.496094-31.128907 79.601563-72.011719zm0 0"/><path d="m424.507812 216h-48c-8.835937 0-16-7.164062-16-16v-20.71875c.488282-71.105469-52.90625-131.046875-123.59375-138.753906-38.070312-3.46875-75.839843 9.238281-104.074218 35.011718-28.234375 25.773438-44.324219 62.234376-44.332032 100.460938v24c0 8.835938-7.164062 16-16 16h-48c-13.253906 0-24 10.746094-24 24v38.640625c-.265624 8.851563 6.332032 16.414063 15.136719 17.359375 4.390625.238281 8.683594-1.34375 11.875-4.371094 3.191407-3.023437 4.996094-7.230468 4.988281-11.628906v-16c0-8.835938 7.164063-16 16-16h16c13.253907 0 24 10.746094 24 24v184c0 4.417969 3.582032 8 8 8h34.726563l21.921875-51.152344c1.261719-2.941406 4.152344-4.84375 7.351562-4.84375 3.199219 0 6.089844 1.902344 7.351563 4.84375l21.921875 51.152344h69.453125l21.921875-51.152344c1.261719-2.941406 4.152344-4.84375 7.351562-4.84375 3.199219 0 6.089844 1.902344 7.351563 4.84375l21.921875 51.152344h34.726562c4.417969 0 8-3.582031 8-8v-184c0-13.253906 10.746094-24 24-24h16c8.835938 0 16 7.164062 16 16v14.640625c-.265624 8.851563 6.332032 16.414063 15.136719 17.359375 4.390625.238281 8.683594-1.34375 11.875-4.371094 3.191407-3.023437 4.996094-7.230468 4.988281-11.628906v-40c0-13.253906-10.746093-24-24-24zm-152-112c17.671876 0 32 14.328125 32 32s-14.328124 32-32 32c-17.671874 0-32-14.328125-32-32s14.328126-32 32-32zm-96 0c17.671876 0 32 14.328125 32 32s-14.328124 32-32 32c-17.671874 0-32-14.328125-32-32s14.328126-32 32-32zm-15.160156 267.574219-9.800781-19.574219-11.625 4.984375 3.746094 7.472656-14.320313 7.152344-4.152344-8.3125-9.535156 4.085937-6.304687-14.703124 8.671875-3.710938-4.679688-9.359375 14.320313-7.152344 5.09375 10.191407 11.617187-4.976563-7.03125-14.0625 14.320313-7.152344 7.449219 14.902344 6.238281-2.679687 6.304687 14.703124-5.375 2.304688 9.421875 18.738281zm63.160156-83.574219c-52.996093-.058594-95.941406-43.003906-96-96 0-4.417969 3.582032-8 8-8h176c4.417969 0 8 3.582031 8 8-.058593 52.996094-43.003906 95.941406-96 96zm120 40h-16v16h-16v-16h-8v8h-16v-8h-8v-16h8v-8h16v8h8v-8h16v8h16zm0 0"/><path d="m89.90625 19.015625c-11.875 9.835937-18.300781 24.777344-17.277344 40.160156 1.027344 15.382813 9.378906 29.339844 22.453125 37.511719 6.46875-10.546875 14.199219-20.265625 23.027344-28.933594zm0 0"/><path d="m359.109375 19.015625-28.570313 49.480469c8.648438 8.621094 16.261719 18.214844 22.695313 28.59375 6.984375-4.148438 12.773437-10.035156 16.800781-17.089844 11.773438-20.269531 7.148438-46.082031-10.925781-61.007812zm0 0"/></svg>